<?xml version="1.0" encoding="UTF-8" standalone="no"?>
<!-- Created with Inkscape (http://www.inkscape.org/) -->

<svg
   width="210mm"
   height="297mm"
   viewBox="0 0 210 297"
   version="1.1"
   id="svg5"
   xmlns:inkscape="http://www.inkscape.org/namespaces/inkscape"
   xmlns:sodipodi="http://sodipodi.sourceforge.net/DTD/sodipodi-0.dtd"
   xmlns="http://www.w3.org/2000/svg"
   xmlns:svg="http://www.w3.org/2000/svg">
  <sodipodi:namedview
     id="namedview7"
     pagecolor="#ffffff"
     bordercolor="#000000"
     borderopacity="0.25"
     inkscape:showpageshadow="2"
     inkscape:pageopacity="0.0"
     inkscape:pagecheckerboard="0"
     inkscape:deskcolor="#d1d1d1"
     inkscape:document-units="mm"
     showgrid="false" />
  <defs
     id="defs2" />
  <g
     inkscape:label="Layer 1"
     inkscape:groupmode="layer"
     id="layer1">
    <path
       style="fill:#232323;stroke-width:0.529167;paint-order:stroke fill markers"
       id="path231"
       d="m 37.173323,103.72462 c 1.784421,-2.42008 3.842999,-4.619732 5.891823,-6.814313 0.52664,-0.505151 1.021962,-1.04512 1.57992,-1.515451 1.786967,-1.506318 3.478927,-2.622976 5.485469,-3.845137 2.870438,-1.748354 4.416949,-2.542186 7.550282,-3.972653 1.450766,-0.662321 2.930276,-1.259781 4.395414,-1.889672 7.428212,-3.038465 15.075101,-5.48598 22.641528,-8.147696 2.527274,-0.934516 5.053597,-1.871866 7.585263,-2.794457 0.685789,-0.249915 3.016025,-1.096376 3.714639,-1.311977 0.794393,-0.24516 1.601086,-0.448529 2.401628,-0.672795 7.112351,-1.534941 14.403511,-1.934372 21.646981,-2.380504 4.27813,-0.242642 8.56174,-0.392208 12.84668,-0.424178 1.47286,0.02413 2.93316,0.206899 4.39325,0.383014 1.03978,0.121798 2.08561,0.173778 3.13104,0.215953 0.52424,-0.03744 1.01608,-0.251267 1.54095,-0.187227 1.18982,0.09069 2.37392,0.22556 3.56428,0.320323 1.05196,0.04455 2.07831,0.107437 3.08901,0.40958 0.53321,0.128749 1.02001,0.261038 1.52952,0.450522 0.38537,0.0681 0.71323,0.270986 1.0802,0.395841 0.3997,0.02537 0.77867,0.118282 1.17042,0.176485 0.65338,0.125991 1.33913,0.215362 1.96352,0.453993 1.41764,0.618683 4.42999,2.443358 -1.38826,-0.892276 0.31307,0.199705 0.61208,0.419595 0.92607,0.617773 0,0 3.67367,1.458601 3.67367,1.458601 v 0 c -0.29359,-0.251254 -0.65037,-0.41337 -0.95208,-0.658728 -1.71077,-1.000313 -3.4711,-2.233687 -5.37622,-2.936719 -0.65819,-0.160967 -1.32297,-0.297405 -1.9899,-0.416761 -0.38327,-0.0868 -0.78463,-0.09148 -1.15072,-0.245171 -0.3548,-0.142211 -0.70597,-0.283771 -1.0744,-0.389276 -0.49255,-0.176342 -1.0211,-0.233297 -1.5184,-0.397751 -1.01067,-0.238501 -2.03762,-0.243187 -3.07061,-0.308181 -1.22108,-0.100714 -2.43293,-0.284486 -3.65604,-0.359924 -0.51543,0.02969 -1.00778,0.197062 -1.52742,0.19313 -1.02226,-0.0226 -2.04349,-0.08536 -3.05938,-0.203959 -1.45326,-0.163208 -2.90856,-0.34575 -4.3748,-0.299974 -4.1307,0.227465 -8.25756,0.520515 -12.38698,0.769498 -7.31621,0.494488 -14.6657,0.928492 -21.883187,2.293795 -0.838597,0.208923 -1.685912,0.385527 -2.515786,0.626769 -1.123333,0.326548 -2.579303,0.924975 -3.666265,1.359193 -2.464162,0.984388 -4.926152,1.974363 -7.412347,2.902569 -7.463229,2.773387 -15.025851,5.28364 -22.380251,8.344437 -2.412683,1.023925 -6.33375,2.641373 -8.691859,3.824931 -1.768205,0.887481 -4.912421,2.76511 -6.610861,3.864578 -0.900266,0.582779 -1.808972,1.158391 -2.65326,1.819669 -0.580826,0.454927 -1.073089,1.012796 -1.609635,1.519195 -2.097786,2.189898 -4.172786,4.40045 -6.221629,6.635971 0,0 3.368733,2.02896 3.368733,2.02896 z" />
  </g>
</svg>
